<svg viewBox="0 0 512 512" xml:space="preserve" xmlns="http://www.w3.org/2000/svg" enable-background="new 0 0 512 512"><path d="M256 111.9zM349.2 334.8c-11.2-3.9-29.5-5.1-37.5-8.2-5.6-2.2-14.5-4.5-17.3-8-2.9-3.4-2.9-28.1-2.9-28.1s7-6.5 9.9-13.8c2.9-7.3 4.8-27.1 4.8-27.1s.6.2 1.5.2c2.1 0 5.9-1.4 7.7-10.6 2.2-11.3 6.4-17.2 5.3-25.5-.8-5.6-3.2-6.5-4.6-6.5-.7 0-1.2.2-1.2.2s5.7-8.4 5.7-37c0-29.4-22.7-58.4-64.6-58.5-42 .1-64.6 29.1-64.6 58.5 0 28.5 5.7 37 5.7 37s-.5-.2-1.2-.2c-1.5 0-3.9.9-4.6 6.5-1.1 8.3 3 14.3 5.3 25.5 1.8 9.2 5.6 10.6 7.7 10.6.9 0 1.5-.2 1.5-.2s1.9 19.9 4.8 27.1c2.9 7.3 9.9 13.8 9.9 13.8s0 24.7-2.9 28.1c-2.9 3.4-11.7 5.8-17.3 8-8 3.1-26.3 4.3-37.5 8.2C151.6 338.7 117 355 117 400h278c0-45-34.5-61.3-45.8-65.2z" fill="#ffffff" class="fill-000000"></path><path d="M144.1 322c9-4.5 17.8-4.5 24.6-5.4 0 0 3.8-6.2-8.7-8.4 0 0-17.1-4.3-19.1-6.7-2-2.4-.8-15.7-.8-15.7s23.9-.8 33.4-9.2c-15.5-23.2-7.2-50.3-10.4-75.6-3.1-25.2-18.2-41-47.1-41h-1c-28 0-42.4 15.8-45.6 41.1-3.2 25.3 6 55.4-9.9 75.7 8.9 7.9 30.9 8.3 33.4 8.3h.2l.1-.1s1 14.2-1 16.6c-2 2.4-7.9 4.6-11.9 5.5-8.8 1.9-18.1 5-25.8 7.7C46.8 317.4 32 333 32 352h80.2c2.2-8 17.3-22.6 31.9-30zM399.8 352H480c0-19-14.8-34.6-22.5-37.3-7.7-2.7-17.1-5.8-25.8-7.7-4.1-.9-9.9-3.1-11.9-5.5s-1-16.6-1-16.6l.1.1h.2c2.5 0 24.6-.3 33.5-8.3-15.9-20.3-6.8-50.4-10-75.7-3.2-25.2-17.6-41-45.6-41h-1c-28.9 0-44.1 15.8-47.2 41.1-3.2 25.3 5.1 52.4-10.4 75.6 9.5 8.4 33.4 9.2 33.4 9.2s1.2 13.3-.8 15.7-19.1 6.7-19.1 6.7c-12.5 2.2-8.7 8.4-8.7 8.4 6.8.9 15.7.9 24.6 5.4 14.7 7.3 29.8 21.9 32 29.9z" fill="#ffffff" class="fill-000000"></path></svg>